solid STL generated by MeshLab
  facet normal  0.000000e+00  1.000000e+00  0.000000e+00
    outer loop
      vertex  -3.100000e+01  4.750000e+01  1.000000e+00
      vertex  -4.000000e+00  4.750000e+01  4.000000e+00
      vertex  -1.000000e+00  4.750000e+01  1.000000e+00
    endloop
  endfacet
  facet normal  0.000000e+00  1.000000e+00  0.000000e+00
    outer loop
      vertex  -1.000000e+00  4.750000e+01  1.000000e+00
      vertex  -4.000000e+00  4.750000e+01  4.000000e+00
      vertex  -4.000000e+00  4.750000e+01  2.800000e+01
    endloop
  endfacet
  facet normal  0.000000e+00  1.000000e+00 -0.000000e+00
    outer loop
      vertex  -1.000000e+00  4.750000e+01  1.000000e+00
      vertex  -4.000000e+00  4.750000e+01  2.800000e+01
      vertex  -1.000000e+00  4.750000e+01  3.100000e+01
    endloop
  endfacet
  facet normal  0.000000e+00  1.000000e+00  0.000000e+00
    outer loop
      vertex  -1.000000e+00  4.750000e+01  3.100000e+01
      vertex  -4.000000e+00  4.750000e+01  2.800000e+01
      vertex  -3.100000e+01  4.750000e+01  3.100000e+01
    endloop
  endfacet
  facet normal  0.000000e+00  1.000000e+00  0.000000e+00
    outer loop
      vertex  -3.100000e+01  4.750000e+01  3.100000e+01
      vertex  -4.000000e+00  4.750000e+01  2.800000e+01
      vertex  -2.800000e+01  4.750000e+01  2.800000e+01
    endloop
  endfacet
  facet normal  0.000000e+00  1.000000e+00  0.000000e+00
    outer loop
      vertex  -3.100000e+01  4.750000e+01  3.100000e+01
      vertex  -2.800000e+01  4.750000e+01  2.800000e+01
      vertex  -2.800000e+01  4.750000e+01  4.000000e+00
    endloop
  endfacet
  facet normal  0.000000e+00  1.000000e+00  0.000000e+00
    outer loop
      vertex  -4.000000e+00  4.750000e+01  4.000000e+00
      vertex  -3.100000e+01  4.750000e+01  1.000000e+00
      vertex  -2.800000e+01  4.750000e+01  4.000000e+00
    endloop
  endfacet
  facet normal  0.000000e+00  1.000000e+00  0.000000e+00
    outer loop
      vertex  -2.800000e+01  4.750000e+01  4.000000e+00
      vertex  -3.100000e+01  4.750000e+01  1.000000e+00
      vertex  -3.100000e+01  4.750000e+01  3.100000e+01
    endloop
  endfacet
  facet normal  0.000000e+00  1.000000e+00 -0.000000e+00
    outer loop
      vertex  -4.000000e+00  2.500000e+00  4.000000e+00
      vertex  -2.800000e+01  2.500000e+00  4.000000e+00
      vertex  -4.000000e+00  2.500000e+00  2.800000e+01
    endloop
  endfacet
  facet normal  0.000000e+00  1.000000e+00  0.000000e+00
    outer loop
      vertex  -4.000000e+00  2.500000e+00  2.800000e+01
      vertex  -2.800000e+01  2.500000e+00  4.000000e+00
      vertex  -2.800000e+01  2.500000e+00  2.800000e+01
    endloop
  endfacet
  facet normal  0.000000e+00 -1.000000e+00  0.000000e+00
    outer loop
      vertex  -1.000000e+00  1.000000e+00  1.000000e+00
      vertex  -1.000000e+00  1.000000e+00  3.100000e+01
      vertex  -3.100000e+01  1.000000e+00  1.000000e+00
    endloop
  endfacet
  facet normal  0.000000e+00 -1.000000e+00  0.000000e+00
    outer loop
      vertex  -3.100000e+01  1.000000e+00  1.000000e+00
      vertex  -1.000000e+00  1.000000e+00  3.100000e+01
      vertex  -3.100000e+01  1.000000e+00  3.100000e+01
    endloop
  endfacet
  facet normal  0.000000e+00  0.000000e+00  1.000000e+00
    outer loop
      vertex  -2.800000e+01  2.500000e+00  4.000000e+00
      vertex  -4.000000e+00  2.500000e+00  4.000000e+00
      vertex  -2.800000e+01  4.750000e+01  4.000000e+00
    endloop
  endfacet
  facet normal -0.000000e+00  0.000000e+00  1.000000e+00
    outer loop
      vertex  -2.800000e+01  4.750000e+01  4.000000e+00
      vertex  -4.000000e+00  2.500000e+00  4.000000e+00
      vertex  -4.000000e+00  4.750000e+01  4.000000e+00
    endloop
  endfacet
  facet normal  1.000000e+00 -0.000000e+00  0.000000e+00
    outer loop
      vertex  -2.800000e+01  2.500000e+00  2.800000e+01
      vertex  -2.800000e+01  2.500000e+00  4.000000e+00
      vertex  -2.800000e+01  4.750000e+01  2.800000e+01
    endloop
  endfacet
  facet normal  1.000000e+00  0.000000e+00  0.000000e+00
    outer loop
      vertex  -2.800000e+01  4.750000e+01  2.800000e+01
      vertex  -2.800000e+01  2.500000e+00  4.000000e+00
      vertex  -2.800000e+01  4.750000e+01  4.000000e+00
    endloop
  endfacet
  facet normal  0.000000e+00  0.000000e+00 -1.000000e+00
    outer loop
      vertex  -4.000000e+00  2.500000e+00  2.800000e+01
      vertex  -2.800000e+01  2.500000e+00  2.800000e+01
      vertex  -4.000000e+00  4.750000e+01  2.800000e+01
    endloop
  endfacet
  facet normal -0.000000e+00  0.000000e+00 -1.000000e+00
    outer loop
      vertex  -4.000000e+00  4.750000e+01  2.800000e+01
      vertex  -2.800000e+01  2.500000e+00  2.800000e+01
      vertex  -2.800000e+01  4.750000e+01  2.800000e+01
    endloop
  endfacet
  facet normal -1.000000e+00  0.000000e+00  0.000000e+00
    outer loop
      vertex  -4.000000e+00  2.500000e+00  4.000000e+00
      vertex  -4.000000e+00  2.500000e+00  2.800000e+01
      vertex  -4.000000e+00  4.750000e+01  4.000000e+00
    endloop
  endfacet
  facet normal -1.000000e+00  0.000000e+00  0.000000e+00
    outer loop
      vertex  -4.000000e+00  4.750000e+01  4.000000e+00
      vertex  -4.000000e+00  2.500000e+00  2.800000e+01
      vertex  -4.000000e+00  4.750000e+01  2.800000e+01
    endloop
  endfacet
  facet normal  1.000000e+00  0.000000e+00 -0.000000e+00
    outer loop
      vertex  -1.000000e+00  4.750000e+01  1.000000e+00
      vertex  -1.000000e+00  4.750000e+01  3.100000e+01
      vertex  -1.000000e+00  1.000000e+00  1.000000e+00
    endloop
  endfacet
  facet normal  1.000000e+00  0.000000e+00  0.000000e+00
    outer loop
      vertex  -1.000000e+00  1.000000e+00  1.000000e+00
      vertex  -1.000000e+00  4.750000e+01  3.100000e+01
      vertex  -1.000000e+00  1.000000e+00  3.100000e+01
    endloop
  endfacet
  facet normal  0.000000e+00  0.000000e+00  1.000000e+00
    outer loop
      vertex  -1.000000e+00  4.750000e+01  3.100000e+01
      vertex  -3.100000e+01  4.750000e+01  3.100000e+01
      vertex  -1.000000e+00  1.000000e+00  3.100000e+01
    endloop
  endfacet
  facet normal  0.000000e+00  0.000000e+00  1.000000e+00
    outer loop
      vertex  -1.000000e+00  1.000000e+00  3.100000e+01
      vertex  -3.100000e+01  4.750000e+01  3.100000e+01
      vertex  -3.100000e+01  1.000000e+00  3.100000e+01
    endloop
  endfacet
  facet normal -1.000000e+00 -0.000000e+00 -0.000000e+00
    outer loop
      vertex  -3.100000e+01  4.750000e+01  3.100000e+01
      vertex  -3.100000e+01  4.750000e+01  1.000000e+00
      vertex  -3.100000e+01  1.000000e+00  3.100000e+01
    endloop
  endfacet
  facet normal -1.000000e+00  0.000000e+00  0.000000e+00
    outer loop
      vertex  -3.100000e+01  1.000000e+00  3.100000e+01
      vertex  -3.100000e+01  4.750000e+01  1.000000e+00
      vertex  -3.100000e+01  1.000000e+00  1.000000e+00
    endloop
  endfacet
  facet normal  0.000000e+00  0.000000e+00 -1.000000e+00
    outer loop
      vertex  -3.100000e+01  4.750000e+01  1.000000e+00
      vertex  -1.000000e+00  4.750000e+01  1.000000e+00
      vertex  -3.100000e+01  1.000000e+00  1.000000e+00
    endloop
  endfacet
  facet normal  0.000000e+00  0.000000e+00 -1.000000e+00
    outer loop
      vertex  -3.100000e+01  1.000000e+00  1.000000e+00
      vertex  -1.000000e+00  4.750000e+01  1.000000e+00
      vertex  -1.000000e+00  1.000000e+00  1.000000e+00
    endloop
  endfacet
  facet normal  0.000000e+00  1.000000e+00  0.000000e+00
    outer loop
      vertex   3.100000e+01  4.750000e+01  3.100000e+01
      vertex   2.800000e+01  4.750000e+01  2.800000e+01
      vertex   1.000000e+00  4.750000e+01  3.100000e+01
    endloop
  endfacet
  facet normal  0.000000e+00  1.000000e+00  0.000000e+00
    outer loop
      vertex   1.000000e+00  4.750000e+01  3.100000e+01
      vertex   2.800000e+01  4.750000e+01  2.800000e+01
      vertex   4.000000e+00  4.750000e+01  2.800000e+01
    endloop
  endfacet
  facet normal  0.000000e+00  1.000000e+00  0.000000e+00
    outer loop
      vertex   1.000000e+00  4.750000e+01  3.100000e+01
      vertex   4.000000e+00  4.750000e+01  2.800000e+01
      vertex   4.000000e+00  4.750000e+01  4.000000e+00
    endloop
  endfacet
  facet normal  0.000000e+00  1.000000e+00  0.000000e+00
    outer loop
      vertex   3.100000e+01  4.750000e+01  3.100000e+01
      vertex   3.100000e+01  4.750000e+01  1.000000e+00
      vertex   2.800000e+01  4.750000e+01  2.800000e+01
    endloop
  endfacet
  facet normal  0.000000e+00  1.000000e+00  0.000000e+00
    outer loop
      vertex   2.800000e+01  4.750000e+01  2.800000e+01
      vertex   3.100000e+01  4.750000e+01  1.000000e+00
      vertex   2.800000e+01  4.750000e+01  4.000000e+00
    endloop
  endfacet
  facet normal  0.000000e+00  1.000000e+00  0.000000e+00
    outer loop
      vertex   2.800000e+01  4.750000e+01  4.000000e+00
      vertex   3.100000e+01  4.750000e+01  1.000000e+00
      vertex   1.000000e+00  4.750000e+01  1.000000e+00
    endloop
  endfacet
  facet normal  0.000000e+00  1.000000e+00  0.000000e+00
    outer loop
      vertex   2.800000e+01  4.750000e+01  4.000000e+00
      vertex   1.000000e+00  4.750000e+01  1.000000e+00
      vertex   4.000000e+00  4.750000e+01  4.000000e+00
    endloop
  endfacet
  facet normal  0.000000e+00  1.000000e+00  0.000000e+00
    outer loop
      vertex   4.000000e+00  4.750000e+01  4.000000e+00
      vertex   1.000000e+00  4.750000e+01  1.000000e+00
      vertex   1.000000e+00  4.750000e+01  3.100000e+01
    endloop
  endfacet
  facet normal  0.000000e+00  0.000000e+00  1.000000e+00
    outer loop
      vertex   4.000000e+00  2.500000e+00  4.000000e+00
      vertex   2.800000e+01  2.500000e+00  4.000000e+00
      vertex   4.000000e+00  4.750000e+01  4.000000e+00
    endloop
  endfacet
  facet normal -0.000000e+00  0.000000e+00  1.000000e+00
    outer loop
      vertex   4.000000e+00  4.750000e+01  4.000000e+00
      vertex   2.800000e+01  2.500000e+00  4.000000e+00
      vertex   2.800000e+01  4.750000e+01  4.000000e+00
    endloop
  endfacet
  facet normal  1.000000e+00 -0.000000e+00  0.000000e+00
    outer loop
      vertex   4.000000e+00  2.500000e+00  2.800000e+01
      vertex   4.000000e+00  2.500000e+00  4.000000e+00
      vertex   4.000000e+00  4.750000e+01  2.800000e+01
    endloop
  endfacet
  facet normal  1.000000e+00  0.000000e+00  0.000000e+00
    outer loop
      vertex   4.000000e+00  4.750000e+01  2.800000e+01
      vertex   4.000000e+00  2.500000e+00  4.000000e+00
      vertex   4.000000e+00  4.750000e+01  4.000000e+00
    endloop
  endfacet
  facet normal  0.000000e+00  0.000000e+00 -1.000000e+00
    outer loop
      vertex   2.800000e+01  2.500000e+00  2.800000e+01
      vertex   4.000000e+00  2.500000e+00  2.800000e+01
      vertex   2.800000e+01  4.750000e+01  2.800000e+01
    endloop
  endfacet
  facet normal -0.000000e+00  0.000000e+00 -1.000000e+00
    outer loop
      vertex   2.800000e+01  4.750000e+01  2.800000e+01
      vertex   4.000000e+00  2.500000e+00  2.800000e+01
      vertex   4.000000e+00  4.750000e+01  2.800000e+01
    endloop
  endfacet
  facet normal -1.000000e+00  0.000000e+00  0.000000e+00
    outer loop
      vertex   2.800000e+01  2.500000e+00  4.000000e+00
      vertex   2.800000e+01  2.500000e+00  2.800000e+01
      vertex   2.800000e+01  4.750000e+01  4.000000e+00
    endloop
  endfacet
  facet normal -1.000000e+00  0.000000e+00  0.000000e+00
    outer loop
      vertex   2.800000e+01  4.750000e+01  4.000000e+00
      vertex   2.800000e+01  2.500000e+00  2.800000e+01
      vertex   2.800000e+01  4.750000e+01  2.800000e+01
    endloop
  endfacet
  facet normal  1.000000e+00 -0.000000e+00  0.000000e+00
    outer loop
      vertex   3.100000e+01  1.000000e+00  3.100000e+01
      vertex   3.100000e+01  1.000000e+00  1.000000e+00
      vertex   3.100000e+01  4.750000e+01  3.100000e+01
    endloop
  endfacet
  facet normal  1.000000e+00  0.000000e+00  0.000000e+00
    outer loop
      vertex   3.100000e+01  4.750000e+01  3.100000e+01
      vertex   3.100000e+01  1.000000e+00  1.000000e+00
      vertex   3.100000e+01  4.750000e+01  1.000000e+00
    endloop
  endfacet
  facet normal  0.000000e+00  0.000000e+00 -1.000000e+00
    outer loop
      vertex   3.100000e+01  1.000000e+00  1.000000e+00
      vertex   1.000000e+00  1.000000e+00  1.000000e+00
      vertex   3.100000e+01  4.750000e+01  1.000000e+00
    endloop
  endfacet
  facet normal -0.000000e+00  0.000000e+00 -1.000000e+00
    outer loop
      vertex   3.100000e+01  4.750000e+01  1.000000e+00
      vertex   1.000000e+00  1.000000e+00  1.000000e+00
      vertex   1.000000e+00  4.750000e+01  1.000000e+00
    endloop
  endfacet
  facet normal -1.000000e+00  0.000000e+00  0.000000e+00
    outer loop
      vertex   1.000000e+00  1.000000e+00  1.000000e+00
      vertex   1.000000e+00  1.000000e+00  3.100000e+01
      vertex   1.000000e+00  4.750000e+01  1.000000e+00
    endloop
  endfacet
  facet normal -1.000000e+00  0.000000e+00  0.000000e+00
    outer loop
      vertex   1.000000e+00  4.750000e+01  1.000000e+00
      vertex   1.000000e+00  1.000000e+00  3.100000e+01
      vertex   1.000000e+00  4.750000e+01  3.100000e+01
    endloop
  endfacet
  facet normal  0.000000e+00  0.000000e+00  1.000000e+00
    outer loop
      vertex   1.000000e+00  1.000000e+00  3.100000e+01
      vertex   3.100000e+01  1.000000e+00  3.100000e+01
      vertex   1.000000e+00  4.750000e+01  3.100000e+01
    endloop
  endfacet
  facet normal -0.000000e+00  0.000000e+00  1.000000e+00
    outer loop
      vertex   1.000000e+00  4.750000e+01  3.100000e+01
      vertex   3.100000e+01  1.000000e+00  3.100000e+01
      vertex   3.100000e+01  4.750000e+01  3.100000e+01
    endloop
  endfacet
  facet normal  0.000000e+00  1.000000e+00 -0.000000e+00
    outer loop
      vertex   2.800000e+01  2.500000e+00  4.000000e+00
      vertex   4.000000e+00  2.500000e+00  4.000000e+00
      vertex   2.800000e+01  2.500000e+00  2.800000e+01
    endloop
  endfacet
  facet normal  0.000000e+00  1.000000e+00  0.000000e+00
    outer loop
      vertex   2.800000e+01  2.500000e+00  2.800000e+01
      vertex   4.000000e+00  2.500000e+00  4.000000e+00
      vertex   4.000000e+00  2.500000e+00  2.800000e+01
    endloop
  endfacet
  facet normal  0.000000e+00 -1.000000e+00  0.000000e+00
    outer loop
      vertex   1.000000e+00  1.000000e+00  3.100000e+01
      vertex   1.000000e+00  1.000000e+00  1.000000e+00
      vertex   3.100000e+01  1.000000e+00  3.100000e+01
    endloop
  endfacet
  facet normal  0.000000e+00 -1.000000e+00 -0.000000e+00
    outer loop
      vertex   3.100000e+01  1.000000e+00  3.100000e+01
      vertex   1.000000e+00  1.000000e+00  1.000000e+00
      vertex   3.100000e+01  1.000000e+00  1.000000e+00
    endloop
  endfacet
  facet normal  0.000000e+00  1.000000e+00  0.000000e+00
    outer loop
      vertex  -3.100000e+01  4.750000e+01 -3.100000e+01
      vertex  -4.000000e+00  4.750000e+01 -2.800000e+01
      vertex  -1.000000e+00  4.750000e+01 -3.100000e+01
    endloop
  endfacet
  facet normal  0.000000e+00  1.000000e+00  0.000000e+00
    outer loop
      vertex  -1.000000e+00  4.750000e+01 -3.100000e+01
      vertex  -4.000000e+00  4.750000e+01 -2.800000e+01
      vertex  -4.000000e+00  4.750000e+01 -4.000000e+00
    endloop
  endfacet
  facet normal  0.000000e+00  1.000000e+00 -0.000000e+00
    outer loop
      vertex  -1.000000e+00  4.750000e+01 -3.100000e+01
      vertex  -4.000000e+00  4.750000e+01 -4.000000e+00
      vertex  -1.000000e+00  4.750000e+01 -1.000000e+00
    endloop
  endfacet
  facet normal  0.000000e+00  1.000000e+00  0.000000e+00
    outer loop
      vertex  -1.000000e+00  4.750000e+01 -1.000000e+00
      vertex  -4.000000e+00  4.750000e+01 -4.000000e+00
      vertex  -3.100000e+01  4.750000e+01 -1.000000e+00
    endloop
  endfacet
  facet normal  0.000000e+00  1.000000e+00  0.000000e+00
    outer loop
      vertex  -3.100000e+01  4.750000e+01 -1.000000e+00
      vertex  -4.000000e+00  4.750000e+01 -4.000000e+00
      vertex  -2.800000e+01  4.750000e+01 -4.000000e+00
    endloop
  endfacet
  facet normal  0.000000e+00  1.000000e+00  0.000000e+00
    outer loop
      vertex  -3.100000e+01  4.750000e+01 -1.000000e+00
      vertex  -2.800000e+01  4.750000e+01 -4.000000e+00
      vertex  -2.800000e+01  4.750000e+01 -2.800000e+01
    endloop
  endfacet
  facet normal  0.000000e+00  1.000000e+00  0.000000e+00
    outer loop
      vertex  -4.000000e+00  4.750000e+01 -2.800000e+01
      vertex  -3.100000e+01  4.750000e+01 -3.100000e+01
      vertex  -2.800000e+01  4.750000e+01 -2.800000e+01
    endloop
  endfacet
  facet normal  0.000000e+00  1.000000e+00  0.000000e+00
    outer loop
      vertex  -2.800000e+01  4.750000e+01 -2.800000e+01
      vertex  -3.100000e+01  4.750000e+01 -3.100000e+01
      vertex  -3.100000e+01  4.750000e+01 -1.000000e+00
    endloop
  endfacet
  facet normal  0.000000e+00  0.000000e+00  1.000000e+00
    outer loop
      vertex  -2.800000e+01  2.500000e+00 -2.800000e+01
      vertex  -4.000000e+00  2.500000e+00 -2.800000e+01
      vertex  -2.800000e+01  4.750000e+01 -2.800000e+01
    endloop
  endfacet
  facet normal -0.000000e+00  0.000000e+00  1.000000e+00
    outer loop
      vertex  -2.800000e+01  4.750000e+01 -2.800000e+01
      vertex  -4.000000e+00  2.500000e+00 -2.800000e+01
      vertex  -4.000000e+00  4.750000e+01 -2.800000e+01
    endloop
  endfacet
  facet normal  1.000000e+00 -0.000000e+00  0.000000e+00
    outer loop
      vertex  -2.800000e+01  2.500000e+00 -4.000000e+00
      vertex  -2.800000e+01  2.500000e+00 -2.800000e+01
      vertex  -2.800000e+01  4.750000e+01 -4.000000e+00
    endloop
  endfacet
  facet normal  1.000000e+00  0.000000e+00  0.000000e+00
    outer loop
      vertex  -2.800000e+01  4.750000e+01 -4.000000e+00
      vertex  -2.800000e+01  2.500000e+00 -2.800000e+01
      vertex  -2.800000e+01  4.750000e+01 -2.800000e+01
    endloop
  endfacet
  facet normal  0.000000e+00  0.000000e+00 -1.000000e+00
    outer loop
      vertex  -4.000000e+00  2.500000e+00 -4.000000e+00
      vertex  -2.800000e+01  2.500000e+00 -4.000000e+00
      vertex  -4.000000e+00  4.750000e+01 -4.000000e+00
    endloop
  endfacet
  facet normal -0.000000e+00  0.000000e+00 -1.000000e+00
    outer loop
      vertex  -4.000000e+00  4.750000e+01 -4.000000e+00
      vertex  -2.800000e+01  2.500000e+00 -4.000000e+00
      vertex  -2.800000e+01  4.750000e+01 -4.000000e+00
    endloop
  endfacet
  facet normal -1.000000e+00  0.000000e+00  0.000000e+00
    outer loop
      vertex  -4.000000e+00  2.500000e+00 -2.800000e+01
      vertex  -4.000000e+00  2.500000e+00 -4.000000e+00
      vertex  -4.000000e+00  4.750000e+01 -2.800000e+01
    endloop
  endfacet
  facet normal -1.000000e+00  0.000000e+00  0.000000e+00
    outer loop
      vertex  -4.000000e+00  4.750000e+01 -2.800000e+01
      vertex  -4.000000e+00  2.500000e+00 -4.000000e+00
      vertex  -4.000000e+00  4.750000e+01 -4.000000e+00
    endloop
  endfacet
  facet normal -1.000000e+00  0.000000e+00  0.000000e+00
    outer loop
      vertex  -3.100000e+01  1.000000e+00 -3.100000e+01
      vertex  -3.100000e+01  1.000000e+00 -1.000000e+00
      vertex  -3.100000e+01  4.750000e+01 -3.100000e+01
    endloop
  endfacet
  facet normal -1.000000e+00  0.000000e+00  0.000000e+00
    outer loop
      vertex  -3.100000e+01  4.750000e+01 -3.100000e+01
      vertex  -3.100000e+01  1.000000e+00 -1.000000e+00
      vertex  -3.100000e+01  4.750000e+01 -1.000000e+00
    endloop
  endfacet
  facet normal  0.000000e+00  0.000000e+00  1.000000e+00
    outer loop
      vertex  -3.100000e+01  1.000000e+00 -1.000000e+00
      vertex  -1.000000e+00  1.000000e+00 -1.000000e+00
      vertex  -3.100000e+01  4.750000e+01 -1.000000e+00
    endloop
  endfacet
  facet normal -0.000000e+00  0.000000e+00  1.000000e+00
    outer loop
      vertex  -3.100000e+01  4.750000e+01 -1.000000e+00
      vertex  -1.000000e+00  1.000000e+00 -1.000000e+00
      vertex  -1.000000e+00  4.750000e+01 -1.000000e+00
    endloop
  endfacet
  facet normal  1.000000e+00 -0.000000e+00  0.000000e+00
    outer loop
      vertex  -1.000000e+00  1.000000e+00 -1.000000e+00
      vertex  -1.000000e+00  1.000000e+00 -3.100000e+01
      vertex  -1.000000e+00  4.750000e+01 -1.000000e+00
    endloop
  endfacet
  facet normal  1.000000e+00  0.000000e+00  0.000000e+00
    outer loop
      vertex  -1.000000e+00  4.750000e+01 -1.000000e+00
      vertex  -1.000000e+00  1.000000e+00 -3.100000e+01
      vertex  -1.000000e+00  4.750000e+01 -3.100000e+01
    endloop
  endfacet
  facet normal  0.000000e+00  0.000000e+00 -1.000000e+00
    outer loop
      vertex  -1.000000e+00  1.000000e+00 -3.100000e+01
      vertex  -3.100000e+01  1.000000e+00 -3.100000e+01
      vertex  -1.000000e+00  4.750000e+01 -3.100000e+01
    endloop
  endfacet
  facet normal -0.000000e+00  0.000000e+00 -1.000000e+00
    outer loop
      vertex  -1.000000e+00  4.750000e+01 -3.100000e+01
      vertex  -3.100000e+01  1.000000e+00 -3.100000e+01
      vertex  -3.100000e+01  4.750000e+01 -3.100000e+01
    endloop
  endfacet
  facet normal  0.000000e+00  1.000000e+00 -0.000000e+00
    outer loop
      vertex  -4.000000e+00  2.500000e+00 -2.800000e+01
      vertex  -2.800000e+01  2.500000e+00 -2.800000e+01
      vertex  -4.000000e+00  2.500000e+00 -4.000000e+00
    endloop
  endfacet
  facet normal  0.000000e+00  1.000000e+00  0.000000e+00
    outer loop
      vertex  -4.000000e+00  2.500000e+00 -4.000000e+00
      vertex  -2.800000e+01  2.500000e+00 -2.800000e+01
      vertex  -2.800000e+01  2.500000e+00 -4.000000e+00
    endloop
  endfacet
  facet normal  0.000000e+00 -1.000000e+00  0.000000e+00
    outer loop
      vertex  -1.000000e+00  1.000000e+00 -3.100000e+01
      vertex  -1.000000e+00  1.000000e+00 -1.000000e+00
      vertex  -3.100000e+01  1.000000e+00 -3.100000e+01
    endloop
  endfacet
  facet normal  0.000000e+00 -1.000000e+00  0.000000e+00
    outer loop
      vertex  -3.100000e+01  1.000000e+00 -3.100000e+01
      vertex  -1.000000e+00  1.000000e+00 -1.000000e+00
      vertex  -3.100000e+01  1.000000e+00 -1.000000e+00
    endloop
  endfacet
  facet normal  0.000000e+00  1.000000e+00  0.000000e+00
    outer loop
      vertex   1.000000e+00  4.750000e+01 -1.000000e+00
      vertex   4.000000e+00  4.750000e+01 -2.800000e+01
      vertex   1.000000e+00  4.750000e+01 -3.100000e+01
    endloop
  endfacet
  facet normal  0.000000e+00  1.000000e+00  0.000000e+00
    outer loop
      vertex   1.000000e+00  4.750000e+01 -3.100000e+01
      vertex   4.000000e+00  4.750000e+01 -2.800000e+01
      vertex   2.800000e+01  4.750000e+01 -2.800000e+01
    endloop
  endfacet
  facet normal  0.000000e+00  1.000000e+00  0.000000e+00
    outer loop
      vertex   1.000000e+00  4.750000e+01 -3.100000e+01
      vertex   2.800000e+01  4.750000e+01 -2.800000e+01
      vertex   3.100000e+01  4.750000e+01 -3.100000e+01
    endloop
  endfacet
  facet normal  0.000000e+00  1.000000e+00  0.000000e+00
    outer loop
      vertex   3.100000e+01  4.750000e+01 -3.100000e+01
      vertex   2.800000e+01  4.750000e+01 -2.800000e+01
      vertex   2.800000e+01  4.750000e+01 -4.000000e+00
    endloop
  endfacet
  facet normal  0.000000e+00  1.000000e+00 -0.000000e+00
    outer loop
      vertex   3.100000e+01  4.750000e+01 -3.100000e+01
      vertex   2.800000e+01  4.750000e+01 -4.000000e+00
      vertex   3.100000e+01  4.750000e+01 -1.000000e+00
    endloop
  endfacet
  facet normal  0.000000e+00  1.000000e+00  0.000000e+00
    outer loop
      vertex   3.100000e+01  4.750000e+01 -1.000000e+00
      vertex   2.800000e+01  4.750000e+01 -4.000000e+00
      vertex   1.000000e+00  4.750000e+01 -1.000000e+00
    endloop
  endfacet
  facet normal  0.000000e+00  1.000000e+00  0.000000e+00
    outer loop
      vertex   1.000000e+00  4.750000e+01 -1.000000e+00
      vertex   2.800000e+01  4.750000e+01 -4.000000e+00
      vertex   4.000000e+00  4.750000e+01 -4.000000e+00
    endloop
  endfacet
  facet normal  0.000000e+00  1.000000e+00  0.000000e+00
    outer loop
      vertex   1.000000e+00  4.750000e+01 -1.000000e+00
      vertex   4.000000e+00  4.750000e+01 -4.000000e+00
      vertex   4.000000e+00  4.750000e+01 -2.800000e+01
    endloop
  endfacet
  facet normal  0.000000e+00  0.000000e+00 -1.000000e+00
    outer loop
      vertex   2.800000e+01  2.500000e+00 -4.000000e+00
      vertex   4.000000e+00  2.500000e+00 -4.000000e+00
      vertex   2.800000e+01  4.750000e+01 -4.000000e+00
    endloop
  endfacet
  facet normal -0.000000e+00  0.000000e+00 -1.000000e+00
    outer loop
      vertex   2.800000e+01  4.750000e+01 -4.000000e+00
      vertex   4.000000e+00  2.500000e+00 -4.000000e+00
      vertex   4.000000e+00  4.750000e+01 -4.000000e+00
    endloop
  endfacet
  facet normal -1.000000e+00  0.000000e+00  0.000000e+00
    outer loop
      vertex   2.800000e+01  2.500000e+00 -2.800000e+01
      vertex   2.800000e+01  2.500000e+00 -4.000000e+00
      vertex   2.800000e+01  4.750000e+01 -2.800000e+01
    endloop
  endfacet
  facet normal -1.000000e+00  0.000000e+00  0.000000e+00
    outer loop
      vertex   2.800000e+01  4.750000e+01 -2.800000e+01
      vertex   2.800000e+01  2.500000e+00 -4.000000e+00
      vertex   2.800000e+01  4.750000e+01 -4.000000e+00
    endloop
  endfacet
  facet normal  0.000000e+00  0.000000e+00  1.000000e+00
    outer loop
      vertex   4.000000e+00  2.500000e+00 -2.800000e+01
      vertex   2.800000e+01  2.500000e+00 -2.800000e+01
      vertex   4.000000e+00  4.750000e+01 -2.800000e+01
    endloop
  endfacet
  facet normal -0.000000e+00  0.000000e+00  1.000000e+00
    outer loop
      vertex   4.000000e+00  4.750000e+01 -2.800000e+01
      vertex   2.800000e+01  2.500000e+00 -2.800000e+01
      vertex   2.800000e+01  4.750000e+01 -2.800000e+01
    endloop
  endfacet
  facet normal  1.000000e+00 -0.000000e+00  0.000000e+00
    outer loop
      vertex   4.000000e+00  2.500000e+00 -4.000000e+00
      vertex   4.000000e+00  2.500000e+00 -2.800000e+01
      vertex   4.000000e+00  4.750000e+01 -4.000000e+00
    endloop
  endfacet
  facet normal  1.000000e+00  0.000000e+00  0.000000e+00
    outer loop
      vertex   4.000000e+00  4.750000e+01 -4.000000e+00
      vertex   4.000000e+00  2.500000e+00 -2.800000e+01
      vertex   4.000000e+00  4.750000e+01 -2.800000e+01
    endloop
  endfacet
  facet normal  0.000000e+00  0.000000e+00  1.000000e+00
    outer loop
      vertex   1.000000e+00  1.000000e+00 -1.000000e+00
      vertex   3.100000e+01  1.000000e+00 -1.000000e+00
      vertex   1.000000e+00  4.750000e+01 -1.000000e+00
    endloop
  endfacet
  facet normal -0.000000e+00  0.000000e+00  1.000000e+00
    outer loop
      vertex   1.000000e+00  4.750000e+01 -1.000000e+00
      vertex   3.100000e+01  1.000000e+00 -1.000000e+00
      vertex   3.100000e+01  4.750000e+01 -1.000000e+00
    endloop
  endfacet
  facet normal  1.000000e+00 -0.000000e+00  0.000000e+00
    outer loop
      vertex   3.100000e+01  1.000000e+00 -1.000000e+00
      vertex   3.100000e+01  1.000000e+00 -3.100000e+01
      vertex   3.100000e+01  4.750000e+01 -1.000000e+00
    endloop
  endfacet
  facet normal  1.000000e+00  0.000000e+00  0.000000e+00
    outer loop
      vertex   3.100000e+01  4.750000e+01 -1.000000e+00
      vertex   3.100000e+01  1.000000e+00 -3.100000e+01
      vertex   3.100000e+01  4.750000e+01 -3.100000e+01
    endloop
  endfacet
  facet normal  0.000000e+00  0.000000e+00 -1.000000e+00
    outer loop
      vertex   3.100000e+01  1.000000e+00 -3.100000e+01
      vertex   1.000000e+00  1.000000e+00 -3.100000e+01
      vertex   3.100000e+01  4.750000e+01 -3.100000e+01
    endloop
  endfacet
  facet normal -0.000000e+00  0.000000e+00 -1.000000e+00
    outer loop
      vertex   3.100000e+01  4.750000e+01 -3.100000e+01
      vertex   1.000000e+00  1.000000e+00 -3.100000e+01
      vertex   1.000000e+00  4.750000e+01 -3.100000e+01
    endloop
  endfacet
  facet normal -1.000000e+00  0.000000e+00  0.000000e+00
    outer loop
      vertex   1.000000e+00  1.000000e+00 -3.100000e+01
      vertex   1.000000e+00  1.000000e+00 -1.000000e+00
      vertex   1.000000e+00  4.750000e+01 -3.100000e+01
    endloop
  endfacet
  facet normal -1.000000e+00  0.000000e+00  0.000000e+00
    outer loop
      vertex   1.000000e+00  4.750000e+01 -3.100000e+01
      vertex   1.000000e+00  1.000000e+00 -1.000000e+00
      vertex   1.000000e+00  4.750000e+01 -1.000000e+00
    endloop
  endfacet
  facet normal -0.000000e+00  1.000000e+00  0.000000e+00
    outer loop
      vertex   4.000000e+00  2.500000e+00 -4.000000e+00
      vertex   2.800000e+01  2.500000e+00 -4.000000e+00
      vertex   4.000000e+00  2.500000e+00 -2.800000e+01
    endloop
  endfacet
  facet normal  0.000000e+00  1.000000e+00  0.000000e+00
    outer loop
      vertex   4.000000e+00  2.500000e+00 -2.800000e+01
      vertex   2.800000e+01  2.500000e+00 -4.000000e+00
      vertex   2.800000e+01  2.500000e+00 -2.800000e+01
    endloop
  endfacet
  facet normal  0.000000e+00 -1.000000e+00  0.000000e+00
    outer loop
      vertex   1.000000e+00  1.000000e+00 -1.000000e+00
      vertex   1.000000e+00  1.000000e+00 -3.100000e+01
      vertex   3.100000e+01  1.000000e+00 -1.000000e+00
    endloop
  endfacet
  facet normal  0.000000e+00 -1.000000e+00 -0.000000e+00
    outer loop
      vertex   3.100000e+01  1.000000e+00 -1.000000e+00
      vertex   1.000000e+00  1.000000e+00 -3.100000e+01
      vertex   3.100000e+01  1.000000e+00 -3.100000e+01
    endloop
  endfacet
endsolid vcg
