solid STL generated by MeshLab
  facet normal -1.000000e+00 -0.000000e+00 -0.000000e+00
    outer loop
      vertex  -2.750000e+01  4.750000e+01 -4.500000e+00
      vertex  -2.750000e+01  4.750000e+01 -2.750000e+01
      vertex  -2.750000e+01  2.500000e+00 -4.500000e+00
    endloop
  endfacet
  facet normal -1.000000e+00  0.000000e+00  0.000000e+00
    outer loop
      vertex  -2.750000e+01  2.500000e+00 -4.500000e+00
      vertex  -2.750000e+01  4.750000e+01 -2.750000e+01
      vertex  -2.750000e+01  2.500000e+00 -2.750000e+01
    endloop
  endfacet
  facet normal  0.000000e+00  0.000000e+00  1.000000e+00
    outer loop
      vertex  -4.500000e+00  4.750000e+01 -4.500000e+00
      vertex  -2.750000e+01  4.750000e+01 -4.500000e+00
      vertex  -4.500000e+00  2.500000e+00 -4.500000e+00
    endloop
  endfacet
  facet normal  0.000000e+00  0.000000e+00  1.000000e+00
    outer loop
      vertex  -4.500000e+00  2.500000e+00 -4.500000e+00
      vertex  -2.750000e+01  4.750000e+01 -4.500000e+00
      vertex  -2.750000e+01  2.500000e+00 -4.500000e+00
    endloop
  endfacet
  facet normal  1.000000e+00  0.000000e+00 -0.000000e+00
    outer loop
      vertex  -4.500000e+00  4.750000e+01 -2.750000e+01
      vertex  -4.500000e+00  4.750000e+01 -4.500000e+00
      vertex  -4.500000e+00  2.500000e+00 -2.750000e+01
    endloop
  endfacet
  facet normal  1.000000e+00  0.000000e+00  0.000000e+00
    outer loop
      vertex  -4.500000e+00  2.500000e+00 -2.750000e+01
      vertex  -4.500000e+00  4.750000e+01 -4.500000e+00
      vertex  -4.500000e+00  2.500000e+00 -4.500000e+00
    endloop
  endfacet
  facet normal  0.000000e+00  0.000000e+00 -1.000000e+00
    outer loop
      vertex  -2.750000e+01  4.750000e+01 -2.750000e+01
      vertex  -4.500000e+00  4.750000e+01 -2.750000e+01
      vertex  -2.750000e+01  2.500000e+00 -2.750000e+01
    endloop
  endfacet
  facet normal  0.000000e+00  0.000000e+00 -1.000000e+00
    outer loop
      vertex  -2.750000e+01  2.500000e+00 -2.750000e+01
      vertex  -4.500000e+00  4.750000e+01 -2.750000e+01
      vertex  -4.500000e+00  2.500000e+00 -2.750000e+01
    endloop
  endfacet
  facet normal  0.000000e+00  1.000000e+00 -0.000000e+00
    outer loop
      vertex  -4.500000e+00  4.750000e+01 -2.750000e+01
      vertex  -2.750000e+01  4.750000e+01 -2.750000e+01
      vertex  -4.500000e+00  4.750000e+01 -4.500000e+00
    endloop
  endfacet
  facet normal  0.000000e+00  1.000000e+00  0.000000e+00
    outer loop
      vertex  -4.500000e+00  4.750000e+01 -4.500000e+00
      vertex  -2.750000e+01  4.750000e+01 -2.750000e+01
      vertex  -2.750000e+01  4.750000e+01 -4.500000e+00
    endloop
  endfacet
  facet normal  0.000000e+00 -1.000000e+00  0.000000e+00
    outer loop
      vertex  -4.500000e+00  2.500000e+00 -2.750000e+01
      vertex  -4.500000e+00  2.500000e+00 -4.500000e+00
      vertex  -2.750000e+01  2.500000e+00 -2.750000e+01
    endloop
  endfacet
  facet normal  0.000000e+00 -1.000000e+00  0.000000e+00
    outer loop
      vertex  -2.750000e+01  2.500000e+00 -2.750000e+01
      vertex  -4.500000e+00  2.500000e+00 -4.500000e+00
      vertex  -2.750000e+01  2.500000e+00 -4.500000e+00
    endloop
  endfacet
endsolid vcg
